# xmcd
#
# Track frame offsets:
#	150
#	12899
#	32108
#	54662
#	80112
#	108016
#	134246
#	161536
#	197965
#	235788
#	253771
#
# Disc length: 3897 seconds
#
# Revision: 1
# Processed by: cddbd v1.5.1PL2 Copyright (c) Steve Scherf et al.
# Submitted via: EasyCDDAExtractor 9.0.0.1
#
DISCID=960f370b
DTITLE=Blue Oyster Cult - Old Waldorf San Fransisco 08-09-80 Disc 1
DYEAR=1980
DGENRE=Hard Rock
TTITLE0=Intro
TTITLE1=Dr Music
TTITLE2=Lips In The Hill
TTITLE3=Unknown Tongue
TTITLE4=Cities On Flame
TTITLE5=Marshal Plan
TTITLE6=Divine Wind
TTITLE7=Last Days Of May
TTITLE8=It's Not Easy
TTITLE9=ME 262
TTITLE10=Black Blade
EXTD=
EXTT0=
EXTT1=
EXTT2=
EXTT3=
EXTT4=
EXTT5=
EXTT6=
EXTT7=
EXTT8=
EXTT9=
EXTT10=
PLAYORDER=
